<svg width="81" height="81" viewBox="0 0 81 81" fill="none" xmlns="http://www.w3.org/2000/svg">
<g clip-path="url(#clip0_0_369)">
<circle cx="40.5" cy="40.5" r="40.5" fill="white"/>
<path d="M40.4999 75.2142C35.6978 75.2142 31.1849 74.3024 26.9614 72.4787C22.7378 70.6551 19.0639 68.1822 15.9396 65.0603C12.8153 61.9383 10.3425 58.2644 8.52113 54.0385C6.69979 49.8126 5.78796 45.2997 5.78565 40.4999C5.78333 35.7001 6.69516 31.1872 8.52113 26.9614C10.3471 22.7355 12.8199 19.0615 15.9396 15.9396C19.0592 12.8176 22.7332 10.3448 26.9614 8.52113C31.1895 6.69747 35.7024 5.78564 40.4999 5.78564C45.2974 5.78564 49.8103 6.69747 54.0385 8.52113C58.2667 10.3448 61.9406 12.8176 65.0603 15.9396C68.1799 19.0615 70.6539 22.7355 72.4822 26.9614C74.3104 31.1872 75.2211 35.7001 75.2142 40.4999C75.2072 45.2997 74.2954 49.8126 72.4787 54.0385C70.662 58.2644 68.1892 61.9383 65.0603 65.0603C61.9313 68.1822 58.2574 70.6562 54.0385 72.4822C49.8195 74.3082 45.3067 75.2188 40.4999 75.2142ZM40.4999 68.2713C48.2528 68.2713 54.8195 65.581 60.2003 60.2003C65.581 54.8196 68.2713 48.2528 68.2713 40.4999C68.2713 32.7471 65.581 26.1803 60.2003 20.7996C54.8195 15.4189 48.2528 12.7285 40.4999 12.7285C32.7471 12.7285 26.1803 15.4189 20.7996 20.7996C15.4189 26.1803 12.7285 32.7471 12.7285 40.4999C12.7285 48.2528 15.4189 54.8196 20.7996 60.2003C26.1803 65.581 32.7471 68.2713 40.4999 68.2713Z" fill="black"/>
<path fill-rule="evenodd" clip-rule="evenodd" d="M49.8274 34.6616C50.5342 34.6616 51.212 34.3845 51.7118 33.8913C52.2116 33.3981 52.4923 32.7292 52.4923 32.0317C52.4923 31.3342 52.2116 30.6653 51.7118 30.1721C51.212 29.6789 50.5342 29.4018 49.8274 29.4018C49.1206 29.4018 48.4428 29.6789 47.943 30.1721C47.4432 30.6653 47.1625 31.3342 47.1625 32.0317C47.1625 32.7292 47.4432 33.3981 47.943 33.8913C48.4428 34.3845 49.1206 34.6616 49.8274 34.6616ZM49.8274 38.6064C51.5944 38.6064 53.2889 37.9137 54.5384 36.6807C55.7878 35.4477 56.4897 33.7754 56.4897 32.0317C56.4897 30.288 55.7878 28.6157 54.5384 27.3827C53.2889 26.1497 51.5944 25.457 49.8274 25.457C48.0604 25.457 46.3658 26.1497 45.1164 27.3827C43.867 28.6157 43.1651 30.288 43.1651 32.0317C43.1651 33.7754 43.867 35.4477 45.1164 36.6807C46.3658 37.9137 48.0604 38.6064 49.8274 38.6064ZM43.8313 54.3856V49.1259C43.8313 47.2078 43.0592 45.3683 41.6848 44.012C40.3104 42.6557 38.4464 41.8937 36.5027 41.8937H25.843C23.8993 41.8937 22.0353 42.6557 20.6609 44.012C19.2865 45.3683 18.5144 47.2078 18.5144 49.1259V54.3856H22.5118V49.1259C22.5118 47.3113 24.0042 45.8385 25.843 45.8385H36.5027C38.3415 45.8385 39.8339 47.3113 39.8339 49.1259V54.3856H43.8313ZM62.4858 49.1259V54.3856H58.4884V49.1259C58.4884 47.3113 56.9961 45.8385 55.1573 45.8385H48.4949V41.8937H55.1573C57.1009 41.8937 58.965 42.6557 60.3393 44.012C61.7137 45.3683 62.4858 47.2078 62.4858 49.1259ZM33.8378 32.0317C33.8378 32.7292 33.557 33.3981 33.0572 33.8913C32.5575 34.3845 31.8796 34.6616 31.1728 34.6616C30.4661 34.6616 29.7882 34.3845 29.2885 33.8913C28.7887 33.3981 28.5079 32.7292 28.5079 32.0317C28.5079 31.3342 28.7887 30.6653 29.2885 30.1721C29.7882 29.6789 30.4661 29.4018 31.1728 29.4018C31.8796 29.4018 32.5575 29.6789 33.0572 30.1721C33.557 30.6653 33.8378 31.3342 33.8378 32.0317ZM37.8352 32.0317C37.8352 33.7754 37.1333 35.4477 35.8838 36.6807C34.6344 37.9137 32.9398 38.6064 31.1728 38.6064C29.4059 38.6064 27.7113 37.9137 26.4619 36.6807C25.2124 35.4477 24.5105 33.7754 24.5105 32.0317C24.5105 30.288 25.2124 28.6157 26.4619 27.3827C27.7113 26.1497 29.4059 25.457 31.1728 25.457C32.9398 25.457 34.6344 26.1497 35.8838 27.3827C37.1333 28.6157 37.8352 30.288 37.8352 32.0317Z" fill="black"/>
</g>
<defs>
<clipPath id="clip0_0_369">
<rect width="81" height="81" fill="white"/>
</clipPath>
</defs>
</svg>
