<svg width="74" height="74" viewBox="0 0 74 74" fill="none" xmlns="http://www.w3.org/2000/svg">
<circle cx="37" cy="37" r="35" fill="white"/>
<path d="M37.0001 67.8333C32.7348 67.8333 28.7265 67.0234 24.9751 65.4036C21.2237 63.7839 17.9605 61.5875 15.1855 58.8145C12.4105 56.0416 10.2141 52.7784 8.59642 49.025C6.9787 45.2715 6.16881 41.2632 6.16675 37C6.1647 32.7367 6.97459 28.7284 8.59642 24.975C10.2183 21.2215 12.4146 17.9583 15.1855 15.1854C17.9564 12.4124 21.2196 10.2161 24.9751 8.59629C28.7306 6.97652 32.7389 6.16663 37.0001 6.16663C41.2613 6.16663 45.2696 6.97652 49.0251 8.59629C52.7806 10.2161 56.0438 12.4124 58.8147 15.1854C61.5856 17.9583 63.7829 21.2215 65.4068 24.975C67.0307 28.7284 67.8396 32.7367 67.8334 37C67.8273 41.2632 67.0174 45.2715 65.4038 49.025C63.7901 52.7784 61.5938 56.0416 58.8147 58.8145C56.0356 61.5875 52.7724 63.7849 49.0251 65.4067C45.2778 67.0285 41.2695 67.8374 37.0001 67.8333ZM37.0001 61.6666C43.8862 61.6666 49.7188 59.277 54.498 54.4979C59.2772 49.7187 61.6668 43.8861 61.6668 37C61.6668 30.1138 59.2772 24.2812 54.498 19.502C49.7188 14.7229 43.8862 12.3333 37.0001 12.3333C30.114 12.3333 24.2813 14.7229 19.5022 19.502C14.723 24.2812 12.3334 30.1138 12.3334 37C12.3334 43.8861 14.723 49.7187 19.5022 54.4979C24.2813 59.277 30.114 61.6666 37.0001 61.6666Z" fill="black"/>
<path d="M36.6542 17L18 49.2208H55.3083M36.6542 23.7833L49.4238 45.8292H23.8845M34.9583 30.5667V37.35H38.35V30.5667M34.9583 40.7417V44.1333H38.35V40.7417" fill="black"/>
</svg>
