<svg width="69" height="70" viewBox="0 0 69 70" fill="none" xmlns="http://www.w3.org/2000/svg">
<g clip-path="url(#clip0_0_360)">
<g clip-path="url(#clip1_0_360)">
<circle cx="34.0564" cy="34.9938" r="35" fill="white"/>
<path d="M34.0566 64.9938C29.9066 64.9938 26.0066 64.2058 22.3566 62.6298C18.7066 61.0538 15.5316 58.9168 12.8316 56.2188C10.1316 53.5208 7.99464 50.3458 6.42064 46.6938C4.84664 43.0418 4.05864 39.1418 4.05664 34.9938C4.05464 30.8458 4.84264 26.9458 6.42064 23.2938C7.99864 19.6418 10.1356 16.4668 12.8316 13.7688C15.5276 11.0708 18.7026 8.93377 22.3566 7.35777C26.0106 5.78177 29.9106 4.99377 34.0566 4.99377C38.2026 4.99377 42.1026 5.78177 45.7566 7.35777C49.4106 8.93377 52.5856 11.0708 55.2816 13.7688C57.9776 16.4668 60.1156 19.6418 61.6956 23.2938C63.2756 26.9458 64.0626 30.8458 64.0566 34.9938C64.0506 39.1418 63.2626 43.0418 61.6926 46.6938C60.1226 50.3458 57.9856 53.5208 55.2816 56.2188C52.5776 58.9168 49.4026 61.0548 45.7566 62.6328C42.1106 64.2108 38.2106 64.9978 34.0566 64.9938ZM34.0566 58.9938C40.7566 58.9938 46.4316 56.6688 51.0816 52.0188C55.7316 47.3688 58.0566 41.6938 58.0566 34.9938C58.0566 28.2938 55.7316 22.6188 51.0816 17.9688C46.4316 13.3188 40.7566 10.9938 34.0566 10.9938C27.3566 10.9938 21.6816 13.3188 17.0316 17.9688C12.3816 22.6188 10.0566 28.2938 10.0566 34.9938C10.0566 41.6938 12.3816 47.3688 17.0316 52.0188C21.6816 56.6688 27.3566 58.9938 34.0566 58.9938Z" fill="black"/>
<path d="M28.5965 46.9938L17.0566 35.1435L19.9416 32.1809L28.5965 41.0686L47.1717 21.9938L50.0566 24.9564L28.5965 46.9938Z" fill="black"/>
</g>
</g>
<defs>
<clipPath id="clip0_0_360">
<rect width="69" height="70" fill="white"/>
</clipPath>
<clipPath id="clip1_0_360">
<rect width="68.8155" height="68.8155" fill="white" transform="translate(-0.162109 1)"/>
</clipPath>
</defs>
</svg>
