<svg width="31" height="31" viewBox="0 0 31 31" fill="none" xmlns="http://www.w3.org/2000/svg">
<path d="M24.6062 6.34207C23.4218 5.14613 22.0113 4.19786 20.4568 3.55254C18.9022 2.90722 17.2348 2.57775 15.5516 2.58332C8.49914 2.58332 2.75122 8.33124 2.75122 15.3837C2.75122 17.6442 3.34539 19.84 4.45622 21.7775L2.64789 28.4167L9.42914 26.6342C11.3021 27.6546 13.4075 28.1971 15.5516 28.1971C22.6041 28.1971 28.3521 22.4492 28.3521 15.3967C28.3521 11.9737 27.0216 8.75749 24.6062 6.34207ZM15.5516 26.0271C13.64 26.0271 11.7671 25.5104 10.1266 24.5417L9.73914 24.3092L5.70914 25.3683L6.78122 21.4417L6.52289 21.0412C5.46055 19.3454 4.89658 17.3849 4.89539 15.3837C4.89539 9.51957 9.67455 4.7404 15.5387 4.7404C18.3804 4.7404 21.0541 5.85124 23.0562 7.86624C24.0477 8.85289 24.8335 10.0266 25.3678 11.3193C25.9022 12.612 26.1746 13.9979 26.1691 15.3967C26.195 21.2608 21.4158 26.0271 15.5516 26.0271ZM21.39 18.0704C21.0671 17.9154 19.4912 17.1404 19.2071 17.0242C18.91 16.9208 18.7033 16.8692 18.4837 17.1792C18.2641 17.5021 17.6571 18.2254 17.4762 18.4321C17.2954 18.6517 17.1016 18.6775 16.7787 18.5096C16.4558 18.3546 15.4225 18.0058 14.2083 16.9208C13.2525 16.0683 12.6196 15.0221 12.4258 14.6992C12.245 14.3762 12.4 14.2083 12.5679 14.0404C12.71 13.8983 12.8908 13.6658 13.0458 13.485C13.2008 13.3042 13.2654 13.1621 13.3687 12.9554C13.4721 12.7358 13.4204 12.555 13.3429 12.4C13.2654 12.245 12.6196 10.6692 12.3612 10.0233C12.1029 9.40332 11.8316 9.48082 11.6379 9.4679H11.0179C10.7983 9.4679 10.4625 9.5454 10.1654 9.86832C9.88122 10.1912 9.05455 10.9662 9.05455 12.5421C9.05455 14.1179 10.2041 15.6421 10.3591 15.8487C10.5141 16.0683 12.6196 19.2975 15.8229 20.6796C16.585 21.0154 17.1791 21.2092 17.6441 21.3512C18.4062 21.5967 19.1037 21.5579 19.6591 21.4804C20.2791 21.39 21.5579 20.7054 21.8162 19.9562C22.0875 19.2071 22.0875 18.5742 21.9971 18.4321C21.9066 18.29 21.7129 18.2254 21.39 18.0704Z" fill="white"/>
</svg>
